<mxfile host="app.diagrams.net" modified="2022-04-15T10:16:36.669Z" agent="5.0 (Windows NT 10.0; Win64; x64) AppleWebKit/537.36 (KHTML, like Gecko) Chrome/100.0.4896.88 Safari/537.36" etag="tQawsHWoP9eAso9cE6rX" version="17.4.4" type="github">
  <diagram id="tucDrUS0IhBs5XFShsl8" name="Page-1">
    <mxGraphModel dx="1038" dy="579" grid="1" gridSize="10" guides="1" tooltips="1" connect="1" arrows="1" fold="1" page="1" pageScale="1" pageWidth="850" pageHeight="1100" math="0" shadow="0">
      <root>
        <mxCell id="0" />
        <mxCell id="1" parent="0" />
        <mxCell id="PcbiQ_AjhFpN2HS_P0sR-11" style="edgeStyle=orthogonalEdgeStyle;rounded=0;orthogonalLoop=1;jettySize=auto;html=1;" parent="1" source="PcbiQ_AjhFpN2HS_P0sR-10" target="PcbiQ_AjhFpN2HS_P0sR-12" edge="1">
          <mxGeometry relative="1" as="geometry">
            <mxPoint x="340" y="510" as="targetPoint" />
          </mxGeometry>
        </mxCell>
        <mxCell id="PcbiQ_AjhFpN2HS_P0sR-24" value="" style="edgeStyle=orthogonalEdgeStyle;rounded=0;orthogonalLoop=1;jettySize=auto;html=1;" parent="1" source="PcbiQ_AjhFpN2HS_P0sR-10" target="PcbiQ_AjhFpN2HS_P0sR-23" edge="1">
          <mxGeometry relative="1" as="geometry" />
        </mxCell>
        <mxCell id="PcbiQ_AjhFpN2HS_P0sR-10" value="HAS" style="rhombus;whiteSpace=wrap;html=1;" parent="1" vertex="1">
          <mxGeometry x="390" y="480" width="70" height="60" as="geometry" />
        </mxCell>
        <mxCell id="PcbiQ_AjhFpN2HS_P0sR-13" value="USER_ID" style="ellipse;whiteSpace=wrap;html=1;rounded=0;" parent="1" vertex="1">
          <mxGeometry x="150" y="510" width="70" height="30" as="geometry" />
        </mxCell>
        <mxCell id="PcbiQ_AjhFpN2HS_P0sR-15" value="USER_NAME" style="ellipse;whiteSpace=wrap;html=1;rounded=0;" parent="1" vertex="1">
          <mxGeometry x="140" y="420" width="80" height="40" as="geometry" />
        </mxCell>
        <mxCell id="PcbiQ_AjhFpN2HS_P0sR-17" value="USER_EMAIL&lt;br&gt;" style="ellipse;whiteSpace=wrap;html=1;rounded=0;" parent="1" vertex="1">
          <mxGeometry x="150" y="550" width="80" height="40" as="geometry" />
        </mxCell>
        <mxCell id="PcbiQ_AjhFpN2HS_P0sR-12" value="USER" style="rounded=0;whiteSpace=wrap;html=1;" parent="1" vertex="1">
          <mxGeometry x="280" y="480" width="80" height="60" as="geometry" />
        </mxCell>
        <mxCell id="PcbiQ_AjhFpN2HS_P0sR-20" value="USER_MOBILE" style="ellipse;whiteSpace=wrap;html=1;" parent="1" vertex="1">
          <mxGeometry x="120" y="470" width="90" height="30" as="geometry" />
        </mxCell>
        <mxCell id="PcbiQ_AjhFpN2HS_P0sR-26" value="" style="edgeStyle=orthogonalEdgeStyle;rounded=0;orthogonalLoop=1;jettySize=auto;html=1;" parent="1" source="PcbiQ_AjhFpN2HS_P0sR-23" target="PcbiQ_AjhFpN2HS_P0sR-25" edge="1">
          <mxGeometry relative="1" as="geometry" />
        </mxCell>
        <mxCell id="PcbiQ_AjhFpN2HS_P0sR-23" value="LOGIN" style="whiteSpace=wrap;html=1;" parent="1" vertex="1">
          <mxGeometry x="365" y="340" width="120" height="60" as="geometry" />
        </mxCell>
        <mxCell id="PcbiQ_AjhFpN2HS_P0sR-25" value="LOGIN_ROLE_ID" style="ellipse;whiteSpace=wrap;html=1;" parent="1" vertex="1">
          <mxGeometry x="365" y="200" width="120" height="60" as="geometry" />
        </mxCell>
        <mxCell id="PcbiQ_AjhFpN2HS_P0sR-27" value="LOGIN_ID" style="ellipse;whiteSpace=wrap;html=1;" parent="1" vertex="1">
          <mxGeometry x="270" y="240" width="80" height="40" as="geometry" />
        </mxCell>
        <mxCell id="PcbiQ_AjhFpN2HS_P0sR-30" value="" style="endArrow=classic;html=1;rounded=0;" parent="1" edge="1">
          <mxGeometry width="50" height="50" relative="1" as="geometry">
            <mxPoint x="460" y="340" as="sourcePoint" />
            <mxPoint x="510" y="290" as="targetPoint" />
            <Array as="points">
              <mxPoint x="480" y="320" />
            </Array>
          </mxGeometry>
        </mxCell>
        <mxCell id="PcbiQ_AjhFpN2HS_P0sR-31" value="LOGIN_PWD" style="ellipse;whiteSpace=wrap;html=1;" parent="1" vertex="1">
          <mxGeometry x="500" y="240" width="90" height="60" as="geometry" />
        </mxCell>
        <mxCell id="PcbiQ_AjhFpN2HS_P0sR-32" value="" style="endArrow=classic;html=1;rounded=0;exitX=0.25;exitY=0;exitDx=0;exitDy=0;" parent="1" source="PcbiQ_AjhFpN2HS_P0sR-23" edge="1">
          <mxGeometry width="50" height="50" relative="1" as="geometry">
            <mxPoint x="365" y="340" as="sourcePoint" />
            <mxPoint x="330" y="280" as="targetPoint" />
          </mxGeometry>
        </mxCell>
        <mxCell id="PcbiQ_AjhFpN2HS_P0sR-33" value="" style="endArrow=classic;html=1;rounded=0;exitX=0;exitY=0.25;exitDx=0;exitDy=0;" parent="1" source="PcbiQ_AjhFpN2HS_P0sR-12" edge="1">
          <mxGeometry width="50" height="50" relative="1" as="geometry">
            <mxPoint x="310" y="480" as="sourcePoint" />
            <mxPoint x="210" y="490" as="targetPoint" />
          </mxGeometry>
        </mxCell>
        <mxCell id="PcbiQ_AjhFpN2HS_P0sR-35" value="" style="endArrow=classic;html=1;rounded=0;exitX=0;exitY=0.75;exitDx=0;exitDy=0;entryX=1;entryY=0.5;entryDx=0;entryDy=0;" parent="1" source="PcbiQ_AjhFpN2HS_P0sR-12" target="PcbiQ_AjhFpN2HS_P0sR-13" edge="1">
          <mxGeometry width="50" height="50" relative="1" as="geometry">
            <mxPoint x="240" y="530" as="sourcePoint" />
            <mxPoint x="290" y="480" as="targetPoint" />
          </mxGeometry>
        </mxCell>
        <mxCell id="PcbiQ_AjhFpN2HS_P0sR-36" value="" style="endArrow=classic;html=1;rounded=0;entryX=1.02;entryY=0.285;entryDx=0;entryDy=0;entryPerimeter=0;" parent="1" target="PcbiQ_AjhFpN2HS_P0sR-17" edge="1">
          <mxGeometry width="50" height="50" relative="1" as="geometry">
            <mxPoint x="280" y="535" as="sourcePoint" />
            <mxPoint x="330" y="485" as="targetPoint" />
          </mxGeometry>
        </mxCell>
        <mxCell id="PcbiQ_AjhFpN2HS_P0sR-37" value="" style="endArrow=classic;html=1;rounded=0;entryX=1;entryY=0.5;entryDx=0;entryDy=0;" parent="1" target="PcbiQ_AjhFpN2HS_P0sR-15" edge="1">
          <mxGeometry width="50" height="50" relative="1" as="geometry">
            <mxPoint x="280" y="490" as="sourcePoint" />
            <mxPoint x="330" y="440" as="targetPoint" />
          </mxGeometry>
        </mxCell>
        <mxCell id="PcbiQ_AjhFpN2HS_P0sR-38" value="" style="endArrow=classic;html=1;rounded=0;" parent="1" target="PcbiQ_AjhFpN2HS_P0sR-39" edge="1">
          <mxGeometry width="50" height="50" relative="1" as="geometry">
            <mxPoint x="450" y="500" as="sourcePoint" />
            <mxPoint x="510" y="500" as="targetPoint" />
          </mxGeometry>
        </mxCell>
        <mxCell id="PcbiQ_AjhFpN2HS_P0sR-39" value="ROLE" style="rounded=0;whiteSpace=wrap;html=1;" parent="1" vertex="1">
          <mxGeometry x="520" y="470" width="80" height="60" as="geometry" />
        </mxCell>
        <mxCell id="PcbiQ_AjhFpN2HS_P0sR-40" value="" style="endArrow=classic;html=1;rounded=0;entryX=0;entryY=1;entryDx=0;entryDy=0;" parent="1" target="PcbiQ_AjhFpN2HS_P0sR-44" edge="1">
          <mxGeometry width="50" height="50" relative="1" as="geometry">
            <mxPoint x="600" y="490" as="sourcePoint" />
            <mxPoint x="660" y="460" as="targetPoint" />
          </mxGeometry>
        </mxCell>
        <mxCell id="PcbiQ_AjhFpN2HS_P0sR-42" value="" style="endArrow=classic;html=1;rounded=0;exitX=1;exitY=0.5;exitDx=0;exitDy=0;" parent="1" source="PcbiQ_AjhFpN2HS_P0sR-39" edge="1">
          <mxGeometry width="50" height="50" relative="1" as="geometry">
            <mxPoint x="610" y="500" as="sourcePoint" />
            <mxPoint x="670" y="500" as="targetPoint" />
          </mxGeometry>
        </mxCell>
        <mxCell id="PcbiQ_AjhFpN2HS_P0sR-43" value="" style="endArrow=classic;html=1;rounded=0;exitX=1;exitY=0.75;exitDx=0;exitDy=0;entryX=0;entryY=0;entryDx=0;entryDy=0;" parent="1" source="PcbiQ_AjhFpN2HS_P0sR-39" target="PcbiQ_AjhFpN2HS_P0sR-46" edge="1">
          <mxGeometry width="50" height="50" relative="1" as="geometry">
            <mxPoint x="610" y="500" as="sourcePoint" />
            <mxPoint x="680" y="530" as="targetPoint" />
          </mxGeometry>
        </mxCell>
        <mxCell id="PcbiQ_AjhFpN2HS_P0sR-44" value="ROLE_NAME" style="ellipse;whiteSpace=wrap;html=1;" parent="1" vertex="1">
          <mxGeometry x="640" y="390" width="100" height="70" as="geometry" />
        </mxCell>
        <mxCell id="PcbiQ_AjhFpN2HS_P0sR-45" value="ROLE_ID" style="ellipse;whiteSpace=wrap;html=1;" parent="1" vertex="1">
          <mxGeometry x="670" y="480" width="80" height="60" as="geometry" />
        </mxCell>
        <mxCell id="PcbiQ_AjhFpN2HS_P0sR-46" value="ROLE_DESC" style="ellipse;whiteSpace=wrap;html=1;" parent="1" vertex="1">
          <mxGeometry x="660" y="550" width="100" height="50" as="geometry" />
        </mxCell>
        <mxCell id="PcbiQ_AjhFpN2HS_P0sR-49" value="" style="edgeStyle=orthogonalEdgeStyle;rounded=0;orthogonalLoop=1;jettySize=auto;html=1;" parent="1" source="PcbiQ_AjhFpN2HS_P0sR-47" target="PcbiQ_AjhFpN2HS_P0sR-48" edge="1">
          <mxGeometry relative="1" as="geometry" />
        </mxCell>
        <mxCell id="PcbiQ_AjhFpN2HS_P0sR-57" value="" style="edgeStyle=orthogonalEdgeStyle;rounded=0;orthogonalLoop=1;jettySize=auto;html=1;" parent="1" source="PcbiQ_AjhFpN2HS_P0sR-47" target="PcbiQ_AjhFpN2HS_P0sR-56" edge="1">
          <mxGeometry relative="1" as="geometry" />
        </mxCell>
        <mxCell id="PcbiQ_AjhFpN2HS_P0sR-47" value="HAS" style="rhombus;whiteSpace=wrap;html=1;" parent="1" vertex="1">
          <mxGeometry x="378" y="630" width="72" height="100" as="geometry" />
        </mxCell>
        <mxCell id="PcbiQ_AjhFpN2HS_P0sR-48" value="FACULTY" style="whiteSpace=wrap;html=1;" parent="1" vertex="1">
          <mxGeometry x="240" y="650" width="70.5" height="60" as="geometry" />
        </mxCell>
        <mxCell id="PcbiQ_AjhFpN2HS_P0sR-50" value="" style="endArrow=classic;html=1;rounded=0;" parent="1" edge="1">
          <mxGeometry width="50" height="50" relative="1" as="geometry">
            <mxPoint x="240" y="660" as="sourcePoint" />
            <mxPoint x="190" y="640" as="targetPoint" />
          </mxGeometry>
        </mxCell>
        <mxCell id="PcbiQ_AjhFpN2HS_P0sR-51" value="" style="endArrow=classic;html=1;rounded=0;" parent="1" edge="1">
          <mxGeometry width="50" height="50" relative="1" as="geometry">
            <mxPoint x="240" y="680" as="sourcePoint" />
            <mxPoint x="180" y="680" as="targetPoint" />
          </mxGeometry>
        </mxCell>
        <mxCell id="PcbiQ_AjhFpN2HS_P0sR-52" value="" style="endArrow=classic;html=1;rounded=0;" parent="1" edge="1">
          <mxGeometry width="50" height="50" relative="1" as="geometry">
            <mxPoint x="240" y="700" as="sourcePoint" />
            <mxPoint x="180" y="720" as="targetPoint" />
          </mxGeometry>
        </mxCell>
        <mxCell id="PcbiQ_AjhFpN2HS_P0sR-53" value="FACULTY_EMAIL" style="ellipse;whiteSpace=wrap;html=1;" parent="1" vertex="1">
          <mxGeometry x="80" y="620" width="110" height="30" as="geometry" />
        </mxCell>
        <mxCell id="PcbiQ_AjhFpN2HS_P0sR-54" value="FACULTY_ID" style="ellipse;whiteSpace=wrap;html=1;" parent="1" vertex="1">
          <mxGeometry x="100" y="660" width="80" height="30" as="geometry" />
        </mxCell>
        <mxCell id="PcbiQ_AjhFpN2HS_P0sR-55" value="FACULTY_ROLE" style="ellipse;whiteSpace=wrap;html=1;" parent="1" vertex="1">
          <mxGeometry x="80" y="710" width="100" height="30" as="geometry" />
        </mxCell>
        <mxCell id="PcbiQ_AjhFpN2HS_P0sR-59" value="" style="edgeStyle=orthogonalEdgeStyle;rounded=0;orthogonalLoop=1;jettySize=auto;html=1;" parent="1" source="PcbiQ_AjhFpN2HS_P0sR-56" target="PcbiQ_AjhFpN2HS_P0sR-58" edge="1">
          <mxGeometry relative="1" as="geometry" />
        </mxCell>
        <mxCell id="PcbiQ_AjhFpN2HS_P0sR-56" value="LEAVE" style="whiteSpace=wrap;html=1;" parent="1" vertex="1">
          <mxGeometry x="506" y="650" width="44" height="60" as="geometry" />
        </mxCell>
        <mxCell id="PcbiQ_AjhFpN2HS_P0sR-58" value="LEAVE_STATUS" style="ellipse;whiteSpace=wrap;html=1;" parent="1" vertex="1">
          <mxGeometry x="592" y="650" width="108" height="60" as="geometry" />
        </mxCell>
        <mxCell id="PcbiQ_AjhFpN2HS_P0sR-60" value="" style="endArrow=classic;html=1;rounded=0;" parent="1" edge="1">
          <mxGeometry width="50" height="50" relative="1" as="geometry">
            <mxPoint x="550" y="660" as="sourcePoint" />
            <mxPoint x="580" y="630" as="targetPoint" />
          </mxGeometry>
        </mxCell>
        <mxCell id="PcbiQ_AjhFpN2HS_P0sR-61" value="LEAVE_TYPE" style="ellipse;whiteSpace=wrap;html=1;" parent="1" vertex="1">
          <mxGeometry x="540" y="570" width="108" height="60" as="geometry" />
        </mxCell>
        <mxCell id="PcbiQ_AjhFpN2HS_P0sR-63" value="LEAVE_DURATION" style="ellipse;whiteSpace=wrap;html=1;" parent="1" vertex="1">
          <mxGeometry x="592" y="720" width="118" height="60" as="geometry" />
        </mxCell>
        <mxCell id="PcbiQ_AjhFpN2HS_P0sR-64" value="" style="endArrow=classic;html=1;rounded=0;exitX=1;exitY=0.75;exitDx=0;exitDy=0;entryX=0.074;entryY=0.167;entryDx=0;entryDy=0;entryPerimeter=0;" parent="1" source="PcbiQ_AjhFpN2HS_P0sR-56" target="PcbiQ_AjhFpN2HS_P0sR-63" edge="1">
          <mxGeometry width="50" height="50" relative="1" as="geometry">
            <mxPoint x="560" y="670" as="sourcePoint" />
            <mxPoint x="590" y="640" as="targetPoint" />
          </mxGeometry>
        </mxCell>
        <mxCell id="PcbiQ_AjhFpN2HS_P0sR-65" value="MANAGE" style="rhombus;whiteSpace=wrap;html=1;" parent="1" vertex="1">
          <mxGeometry x="485" y="820" width="80" height="80" as="geometry" />
        </mxCell>
        <mxCell id="PcbiQ_AjhFpN2HS_P0sR-67" value="" style="endArrow=classic;html=1;rounded=0;entryX=0.5;entryY=1;entryDx=0;entryDy=0;exitX=0.5;exitY=0;exitDx=0;exitDy=0;" parent="1" source="PcbiQ_AjhFpN2HS_P0sR-65" target="PcbiQ_AjhFpN2HS_P0sR-56" edge="1">
          <mxGeometry width="50" height="50" relative="1" as="geometry">
            <mxPoint x="520" y="820" as="sourcePoint" />
            <mxPoint x="570" y="770" as="targetPoint" />
          </mxGeometry>
        </mxCell>
        <mxCell id="PcbiQ_AjhFpN2HS_P0sR-68" value="" style="endArrow=classic;html=1;rounded=0;" parent="1" target="PcbiQ_AjhFpN2HS_P0sR-70" edge="1">
          <mxGeometry width="50" height="50" relative="1" as="geometry">
            <mxPoint x="485" y="860" as="sourcePoint" />
            <mxPoint x="430" y="860" as="targetPoint" />
          </mxGeometry>
        </mxCell>
        <mxCell id="PcbiQ_AjhFpN2HS_P0sR-70" value="SUBJECT" style="rounded=0;whiteSpace=wrap;html=1;" parent="1" vertex="1">
          <mxGeometry x="365" y="835" width="80" height="50" as="geometry" />
        </mxCell>
        <mxCell id="PcbiQ_AjhFpN2HS_P0sR-71" value="SUBJECT_NAME" style="ellipse;whiteSpace=wrap;html=1;" parent="1" vertex="1">
          <mxGeometry x="220" y="800" width="100" height="40" as="geometry" />
        </mxCell>
        <mxCell id="PcbiQ_AjhFpN2HS_P0sR-72" value="SUBJECT_ID" style="ellipse;whiteSpace=wrap;html=1;" parent="1" vertex="1">
          <mxGeometry x="220" y="870" width="100" height="40" as="geometry" />
        </mxCell>
        <mxCell id="PcbiQ_AjhFpN2HS_P0sR-73" value="" style="endArrow=classic;html=1;rounded=0;entryX=0.98;entryY=0.675;entryDx=0;entryDy=0;entryPerimeter=0;" parent="1" target="PcbiQ_AjhFpN2HS_P0sR-71" edge="1">
          <mxGeometry width="50" height="50" relative="1" as="geometry">
            <mxPoint x="365" y="850" as="sourcePoint" />
            <mxPoint x="415" y="800" as="targetPoint" />
          </mxGeometry>
        </mxCell>
        <mxCell id="PcbiQ_AjhFpN2HS_P0sR-74" value="" style="endArrow=classic;html=1;rounded=0;entryX=1;entryY=0.5;entryDx=0;entryDy=0;" parent="1" target="PcbiQ_AjhFpN2HS_P0sR-72" edge="1">
          <mxGeometry width="50" height="50" relative="1" as="geometry">
            <mxPoint x="365" y="870" as="sourcePoint" />
            <mxPoint x="415" y="820" as="targetPoint" />
          </mxGeometry>
        </mxCell>
        <mxCell id="0Zu_lgVYLfoKImHI4vee-1" value="FACULTY_ID" style="ellipse;whiteSpace=wrap;html=1;" vertex="1" parent="1">
          <mxGeometry x="640" y="610" width="80" height="30" as="geometry" />
        </mxCell>
        <mxCell id="0Zu_lgVYLfoKImHI4vee-2" value="" style="endArrow=classic;html=1;rounded=0;entryX=0;entryY=0.807;entryDx=0;entryDy=0;entryPerimeter=0;" edge="1" parent="1" target="0Zu_lgVYLfoKImHI4vee-1">
          <mxGeometry width="50" height="50" relative="1" as="geometry">
            <mxPoint x="550" y="670" as="sourcePoint" />
            <mxPoint x="600" y="620" as="targetPoint" />
          </mxGeometry>
        </mxCell>
        <mxCell id="0Zu_lgVYLfoKImHI4vee-3" value="FACULTY_ID" style="ellipse;whiteSpace=wrap;html=1;" vertex="1" parent="1">
          <mxGeometry x="160" y="840" width="80" height="30" as="geometry" />
        </mxCell>
        <mxCell id="0Zu_lgVYLfoKImHI4vee-4" value="" style="endArrow=classic;html=1;rounded=0;entryX=1;entryY=0.5;entryDx=0;entryDy=0;" edge="1" parent="1" target="0Zu_lgVYLfoKImHI4vee-3">
          <mxGeometry width="50" height="50" relative="1" as="geometry">
            <mxPoint x="365" y="860" as="sourcePoint" />
            <mxPoint x="415" y="810" as="targetPoint" />
          </mxGeometry>
        </mxCell>
      </root>
    </mxGraphModel>
  </diagram>
</mxfile>
